<svg width="164" height="164" viewBox="0 0 164 164" fill="none" xmlns="http://www.w3.org/2000/svg">
<rect width="164" height="164" rx="82" fill="#E9E6F3"/>
<path fill-rule="evenodd" clip-rule="evenodd" d="M104.501 43.0014C107.17 40.3329 111.497 40.3329 114.165 43.0014L134.665 63.5014C137.334 66.17 137.334 70.4966 134.665 73.1652C131.997 75.8338 127.67 75.8338 125.001 73.1652L104.501 52.6652C101.833 49.9966 101.833 45.67 104.501 43.0014Z" fill="#3C357C"/>
<path fill-rule="evenodd" clip-rule="evenodd" d="M134.665 43.0014C137.334 45.67 137.334 49.9966 134.665 52.6652L114.165 73.1652C111.497 75.8338 107.17 75.8338 104.501 73.1652C101.833 70.4967 101.833 66.17 104.501 63.5014L125.001 43.0014C127.67 40.3329 131.997 40.3329 134.665 43.0014Z" fill="#3C357C"/>
<path fill-rule="evenodd" clip-rule="evenodd" d="M29.3348 43.0014C32.0034 40.3329 36.33 40.3329 38.9986 43.0014L59.4986 63.5014C62.1672 66.17 62.1672 70.4966 59.4986 73.1652C56.83 75.8338 52.5034 75.8338 49.8348 73.1652L29.3348 52.6652C26.6662 49.9966 26.6662 45.67 29.3348 43.0014Z" fill="#3C357C"/>
<path fill-rule="evenodd" clip-rule="evenodd" d="M59.4986 43.0014C62.1671 45.67 62.1671 49.9966 59.4986 52.6652L38.9986 73.1652C36.33 75.8338 32.0034 75.8338 29.3348 73.1652C26.6662 70.4967 26.6662 66.17 29.3348 63.5014L49.8348 43.0014C52.5034 40.3329 56.83 40.3329 59.4986 43.0014Z" fill="#3C357C"/>
<path fill-rule="evenodd" clip-rule="evenodd" d="M57.0408 97.3058C64.2012 91.8114 72.9745 88.8333 82 88.8333C91.0255 88.8333 99.7988 91.8115 106.959 97.3058C114.12 102.8 119.267 110.504 121.603 119.222C122.58 122.867 120.416 126.614 116.771 127.591C113.126 128.568 109.379 126.404 108.402 122.759C106.845 116.947 103.413 111.811 98.6395 108.148C93.8658 104.485 88.017 102.5 82 102.5C75.983 102.5 70.1341 104.485 65.3605 108.148C60.5869 111.811 57.1553 116.947 55.598 122.759C54.6212 126.404 50.8743 128.568 47.2289 127.591C43.5836 126.614 41.4202 122.867 42.397 119.222C44.733 110.504 49.8803 102.8 57.0408 97.3058Z" fill="#3C357C"/>
</svg>
