<svg width="164" height="164" viewBox="0 0 164 164" fill="none" xmlns="http://www.w3.org/2000/svg">
<rect width="164" height="164" rx="82" fill="#FFF4E0"/>
<path fill-rule="evenodd" clip-rule="evenodd" d="M123 47.8333C126.774 47.8333 129.833 50.8927 129.833 54.6666L129.833 75.1666C129.833 78.9406 126.774 82 123 82C119.226 82 116.167 78.9406 116.167 75.1666L116.167 54.6666C116.167 50.8927 119.226 47.8333 123 47.8333Z" fill="#705600"/>
<path fill-rule="evenodd" clip-rule="evenodd" d="M41 47.8333C44.7739 47.8333 47.8333 50.8927 47.8333 54.6666L47.8333 75.1666C47.8333 78.9406 44.7739 82 41 82C37.226 82 34.1666 78.9406 34.1666 75.1666L34.1666 54.6666C34.1666 50.8927 37.226 47.8333 41 47.8333Z" fill="#705600"/>
<path fill-rule="evenodd" clip-rule="evenodd" d="M116.771 97.909C120.417 98.8857 122.58 102.633 121.603 106.278C119.267 114.996 114.12 122.7 106.96 128.194C99.7991 133.688 91.0258 136.666 82.0003 136.666C72.9748 136.666 64.2015 133.688 57.0411 128.194C49.8807 122.7 44.7334 114.996 42.3974 106.278C41.4206 102.633 43.5839 98.8857 47.2293 97.909C50.8746 96.9322 54.6216 99.0955 55.5984 102.741C57.1557 108.553 60.5872 113.689 65.3609 117.351C70.1345 121.014 75.9833 123 82.0003 123C88.0173 123 93.8662 121.014 98.6398 117.351C103.413 113.689 106.845 108.553 108.402 102.741C109.379 99.0955 113.126 96.9322 116.771 97.909Z" fill="#705600"/>
</svg>
