<svg width="164" height="164" viewBox="0 0 164 164" fill="none" xmlns="http://www.w3.org/2000/svg">
<rect width="164" height="164" rx="82" fill="#CFD9B5"/>
<path fill-rule="evenodd" clip-rule="evenodd" d="M108.322 56.2272C110.809 55.1969 113.475 54.6667 116.167 54.6667C118.859 54.6667 121.524 55.1969 124.012 56.2272C126.499 57.2574 128.759 58.7674 130.662 60.671C132.566 62.5746 134.076 64.8345 135.106 67.3217C136.136 69.8089 136.667 72.4746 136.667 75.1667C136.667 78.9406 133.607 82 129.833 82C126.059 82 123 78.9406 123 75.1667C123 74.2693 122.823 73.3807 122.48 72.5517C122.136 71.7226 121.633 70.9693 120.999 70.3348C120.364 69.7003 119.611 69.1969 118.782 68.8535C117.953 68.5101 117.064 68.3334 116.167 68.3334C115.269 68.3334 114.381 68.5101 113.552 68.8535C112.723 69.1969 111.969 69.7003 111.335 70.3348C110.7 70.9693 110.197 71.7226 109.853 72.5517C109.51 73.3807 109.333 74.2693 109.333 75.1667C109.333 78.9406 106.274 82 102.5 82C98.726 82 95.6667 78.9406 95.6667 75.1667C95.6667 72.4746 96.1969 69.8089 97.2271 67.3217C98.2573 64.8345 99.7674 62.5746 101.671 60.671C103.575 58.7674 105.834 57.2574 108.322 56.2272Z" fill="#3D4A26"/>
<path fill-rule="evenodd" clip-rule="evenodd" d="M116.771 97.909C120.417 98.8857 122.58 102.633 121.603 106.278C119.267 114.996 114.12 122.7 106.96 128.194C99.7991 133.688 91.0258 136.666 82.0003 136.666C72.9748 136.666 64.2015 133.688 57.0411 128.194C49.8807 122.7 44.7333 114.996 42.3973 106.278C41.4206 102.633 43.5839 98.8857 47.2292 97.909C50.8746 96.9322 54.6216 99.0955 55.5983 102.741C57.1556 108.553 60.5872 113.689 65.3608 117.351C70.1344 121.014 75.9833 123 82.0003 123C88.0173 123 93.8662 121.014 98.6398 117.351C103.413 113.689 106.845 108.553 108.402 102.741C109.379 99.0955 113.126 96.9322 116.771 97.909Z" fill="#3D4A26"/>
<path fill-rule="evenodd" clip-rule="evenodd" d="M39.9883 56.2272C42.4755 55.1969 45.1412 54.6667 47.8333 54.6667C50.5254 54.6667 53.1912 55.1969 55.6784 56.2272C58.1655 57.2574 60.4254 58.7674 62.329 60.671C64.2326 62.5746 65.7427 64.8345 66.7729 67.3217C67.8031 69.8089 68.3333 72.4746 68.3333 75.1667C68.3333 78.9406 65.274 82 61.5 82C57.7261 82 54.6667 78.9406 54.6667 75.1667C54.6667 74.2693 54.4899 73.3807 54.1465 72.5517C53.8031 71.7226 53.2998 70.9693 52.6652 70.3348C52.0307 69.7003 51.2774 69.1969 50.4483 68.8535C49.6193 68.5101 48.7307 68.3334 47.8333 68.3334C46.936 68.3334 46.0474 68.5101 45.2183 68.8535C44.3893 69.1969 43.636 69.7003 43.0014 70.3348C42.3669 70.9693 41.8636 71.7226 41.5202 72.5517C41.1768 73.3807 41 74.2693 41 75.1667C41 78.9406 37.9406 82 34.1667 82C30.3927 82 27.3333 78.9406 27.3333 75.1667C27.3333 72.4746 27.8636 69.8089 28.8938 67.3217C29.924 64.8345 31.4341 62.5746 33.3377 60.671C35.2413 58.7674 37.5012 57.2574 39.9883 56.2272Z" fill="#3D4A26"/>
</svg>
