<svg width="164" height="164" viewBox="0 0 164 164" fill="none" xmlns="http://www.w3.org/2000/svg">
<rect width="164" height="164" rx="82" fill="#FFEEE2"/>
<path fill-rule="evenodd" clip-rule="evenodd" d="M57.0411 97.3058C64.2015 91.8114 72.9748 88.8333 82.0003 88.8333C91.0258 88.8333 99.7991 91.8115 106.959 97.3058C114.12 102.8 119.267 110.504 121.603 119.222C122.58 122.867 120.417 126.614 116.771 127.591C113.126 128.568 109.379 126.404 108.402 122.759C106.845 116.947 103.413 111.811 98.6398 108.148C93.8661 104.485 88.0173 102.5 82.0003 102.5C75.9833 102.5 70.1344 104.485 65.3608 108.148C60.5872 111.811 57.1556 116.947 55.5983 122.759C54.6215 126.404 50.8746 128.568 47.2292 127.591C43.5839 126.614 41.4205 122.867 42.3973 119.222C44.7333 110.504 49.8806 102.8 57.0411 97.3058Z" fill="#663600"/>
<path fill-rule="evenodd" clip-rule="evenodd" d="M41 47.8333C44.774 47.8333 47.8334 50.8927 47.8334 54.6666V75.1666C47.8334 78.9406 44.774 82 41 82C37.2261 82 34.1667 78.9406 34.1667 75.1666V54.6666C34.1667 50.8927 37.2261 47.8333 41 47.8333Z" fill="#663600"/>
<path fill-rule="evenodd" clip-rule="evenodd" d="M123 47.8333C126.774 47.8333 129.833 50.8927 129.833 54.6666V75.1666C129.833 78.9406 126.774 82 123 82C119.226 82 116.167 78.9406 116.167 75.1666V54.6666C116.167 50.8927 119.226 47.8333 123 47.8333Z" fill="#663600"/>
</svg>
