<svg width="41" height="41" viewBox="0 0 41 41" fill="none" xmlns="http://www.w3.org/2000/svg">
<rect x="0.5" y="0.5" width="40" height="40" rx="20" stroke="#022B3A"/>
<path d="M13.5823 11.4846C15.5669 12.0164 17.3205 13.1882 18.5713 14.8182C19.822 16.4482 20.5 18.4454 20.5 20.5C20.5 22.5545 19.822 24.5517 18.5713 26.1817C17.3205 27.8117 15.5669 28.9835 13.5823 29.5153L12.8921 26.9395C14.3096 26.5596 15.5623 25.7227 16.4557 24.5584C17.349 23.3941 17.8333 21.9675 17.8333 20.5C17.8333 19.0324 17.349 17.6058 16.4557 16.4415C15.5623 15.2772 14.3096 14.4403 12.8921 14.0604L13.5823 11.4846Z" fill="#022B3A"/>
<path d="M21.5823 11.4846C23.5669 12.0164 25.3205 13.1882 26.5713 14.8182C27.822 16.4482 28.5 18.4454 28.5 20.5C28.5 22.5545 27.822 24.5517 26.5713 26.1817C25.3205 27.8117 23.5669 28.9835 21.5823 29.5153L20.8921 26.9395C22.3096 26.5596 23.5623 25.7227 24.4557 24.5584C25.349 23.3941 25.8333 21.9675 25.8333 20.5C25.8333 19.0324 25.349 17.6058 24.4557 16.4415C23.5623 15.2772 22.3096 14.4403 20.8921 14.0604L21.5823 11.4846Z" fill="#022B3A"/>
</svg>
